<?xml version="1.0" encoding="iso-8859-1"?>
<!-- Generator: Adobe Illustrator 19.0.0, SVG Export Plug-In . SVG Version: 6.00 Build 0)  -->
<svg version="1.1" id="Layer_1" xmlns="http://www.w3.org/2000/svg" xmlns:xlink="http://www.w3.org/1999/xlink" x="0px" y="0px"
	 viewBox="0 0 508 508" style="enable-background:new 0 0 508 508;" xml:space="preserve">
<circle style="fill:#54C0EB;" cx="254" cy="254" r="254"/>
<path style="fill:#84DBFF;" d="M56,413.2c46.8,58,118,94.8,198,94.8s151.2-36.8,198-94.8H56z"/>
<path style="fill:#324A5E;" d="M292.8,114.4c-0.8,3.6-2.4,7.6-4.4,10.8l65.6,64.4c3.2-2.4,6.8-4,10.8-4.4L292.8,114.4z M274.8,138.8
	l-8,7.6l77.2,62.8c0.8-4.4,2-8,3.6-11.2L274.8,138.8z"/>
<path style="fill:#FFFFFF;" d="M284.4,129.6l-82.8,79.6l-17.2-22c-7.2-9.2-17.6-14.8-28.4-15.6l87.2-84.4
	c11.6-11.2,30.4-10.8,41.6,0.8c4.8,5.2,7.6,11.2,8,17.6C294,114.4,290.8,123.2,284.4,129.6z"/>
<path style="fill:#324A5E;" d="M244,263.2c-1.2,0-60,22-65.2,51.2l-59.6-76c-14-18-10.8-44,6.8-58c18-14,44-10.8,58,7.2L244,263.2z"
	/>
<path style="fill:#FFFFFF;" d="M144,404.4v8.8h192v-8.8c0-8.4-6.8-15.6-15.6-15.6H159.6C150.8,389.2,144,396,144,404.4z"/>
<path style="fill:#324A5E;" d="M161.6,382v6.8h156.8V382c0-6.8-5.6-12-12.8-12H174.4C167.2,370,161.6,375.6,161.6,382z"/>
<path style="fill:#FFFFFF;" d="M240,262.8c-34,0-62,28-62,62V370h124v-45.2C302,290.8,274,262.8,240,262.8z"/>
<circle style="fill:#E6E9EE;" cx="240" cy="324" r="13.6"/>
<circle style="fill:#ACB3BA;" cx="152.4" cy="215.2" r="23.6"/>
<circle style="fill:#E6E9EE;" cx="263.2" cy="110.4" r="16.8"/>
<path style="fill:#324A5E;" d="M386.8,279.6c0,10-1.2,21.2-3.6,30.4h-9.6v-21.2c3.6-1.6,6-4.8,6-8.8c0-5.2-4.4-9.6-9.6-9.6
	s-9.6,4.4-9.6,9.6c0,4,2.4,7.6,6,8.8V310h-9.6c-2.4-9.6-3.6-20.4-3.6-30.4c0-6.8,0.4-12,1.6-16.4h30
	C386,267.6,386.8,273.2,386.8,279.6z"/>
<path style="fill:#FFFFFF;" d="M391.6,263.2c3.6-12,5.6-26.4,5.6-39.2c0-30.8-12.4-39.6-27.2-39.6c-15.2,0-27.2,8.8-27.2,39.6
	c0,12.8,2,27.2,5.6,39.2L391.6,263.2L391.6,263.2z"/>
<circle style="fill:#E6E9EE;" cx="370" cy="214.8" r="9.2"/>
<g>
</g>
<g>
</g>
<g>
</g>
<g>
</g>
<g>
</g>
<g>
</g>
<g>
</g>
<g>
</g>
<g>
</g>
<g>
</g>
<g>
</g>
<g>
</g>
<g>
</g>
<g>
</g>
<g>
</g>
</svg>
