<?xml version="1.0" encoding="utf-8"?>
<!-- Generator: Adobe Illustrator 17.1.0, SVG Export Plug-In . SVG Version: 6.00 Build 0)  -->
<!DOCTYPE svg PUBLIC "-//W3C//DTD SVG 1.1//EN" "http://www.w3.org/Graphics/SVG/1.1/DTD/svg11.dtd">
<svg version="1.1" id="Mark" xmlns="http://www.w3.org/2000/svg" xmlns:xlink="http://www.w3.org/1999/xlink" x="0px" y="0px"
	 viewBox="2.3 -3 128.8 33.4" enable-background="new 2.3 -3 128.8 33.4" xml:space="preserve">
<g>
	<path fill="#003399" d="M19.5-1.3c-8.3,0-15,6.7-15,15c0,3.4,1.1,6.6,3.1,9.1L20.1,6.4l-1.3,0l-1.3,0c-1.4,0-2.8,0.1-3.7,0.3
		c-0.6,0.1-1.1,0.3-1.5,0.6c-0.5,0.3-1.1,1.1-1.5,1.8c0,0.1-0.1,0.2-0.2,0.4L9.7,9.4l1.2-4.7h15.6L14.1,21.2
		c0.8-0.1,1.1-0.1,1.8-0.1c0.5,0,1.3,0,2.3,0.1l2.2,0.1c0.8,0,1.5,0.1,2,0.1c1.1,0,1.9-0.1,2.6-0.3c0.6-0.2,1.1-0.4,1.6-0.8
		c0.9-0.6,1.7-1.6,2.2-2.5c0-0.1,0.1-0.2,0.2-0.4l0.7,0.2c-0.2,0.8-0.3,1.1-0.7,1.9c-0.7,1.5-1.4,2.5-2.5,3.3
		c-1.1,0.8-2.2,1.2-3.6,1.2l-0.2,0c-1,0-1.8-0.1-4.3-0.5c-2.5-0.4-3.8-0.5-5.1-0.5c-0.8,0-1.6,0.1-2.4,0.2c-1.1,0.2-1.5,0.3-2.5,0.7
		c2.7,3,6.7,4.9,11.1,4.9c8.3,0,15-6.7,15-15C34.5,5.4,27.8-1.3,19.5-1.3"/>
	<path fill="#000066" d="M85.1,12.8c-0.5,0.3-1.1,0.5-1.8,0.6c-0.3,0-0.6,0.1-0.8,0.1c-0.1,0-0.1,0-0.2,0V8.1c0.2,0,0.3,0,0.4,0
		c0.7,0,1.4,0.1,2,0.2c0.4,0.1,0.7,0.3,1,0.5c0.5,0.4,0.8,1,0.8,1.8c0,0.7-0.2,1.2-0.6,1.6C85.6,12.5,85.3,12.7,85.1,12.8 M90.6,20
		c-0.5-0.5-1-1-1.7-1.7c-0.4-0.5-0.8-0.9-1.1-1.2l-2.3-2.7c0.3-0.1,0.4-0.1,0.6-0.2c0.7-0.3,1.3-0.6,1.8-1c0.6-0.5,0.9-1,1.2-1.7
		c0.1-0.4,0.2-0.7,0.2-1.1c0-0.9-0.3-1.7-1-2.4c-0.6-0.6-1.4-1.1-2.4-1.3c-0.7-0.2-1.3-0.2-2.5-0.3c-0.4,0-0.9,0-1.4,0h-3.8
		c0.3,0.2,0.3,0.3,0.5,0.6c0.1,0.2,0.2,0.4,0.3,0.5c0.1,0.3,0.1,0.8,0.1,1.6v9.6c0,0.7,0,1.1-0.2,1.4c-0.1,0.2-0.1,0.3-0.2,0.5
		c-0.1,0.2-0.2,0.3-0.5,0.5h4.6c-0.2-0.2-0.3-0.3-0.4-0.5c-0.1-0.1-0.2-0.3-0.2-0.4c-0.1-0.3-0.2-0.7-0.2-1.4c0-0.2,0-0.5,0-0.7
		v-3.3l2.7,3.2c0.1,0.2,0.3,0.4,0.6,0.7c0.3,0.4,0.6,0.6,0.7,0.8c0.5,0.5,1,0.9,1.5,1.2c0.4,0.2,0.8,0.3,1.4,0.3c0.2,0,0.5,0,0.8,0
		h1.8c-0.2-0.2-0.3-0.3-0.5-0.4C91.1,20.4,90.9,20.2,90.6,20 M96.8,9.1c0-1,0-1.2,0.2-1.6C97,7.3,97,7.2,97.1,7
		c0.2-0.2,0.3-0.4,0.5-0.6H93c0.3,0.3,0.4,0.4,0.5,0.6c0.1,0.2,0.2,0.3,0.2,0.5c0.1,0.4,0.1,0.7,0.2,1.6c0,0.4,0,0.7,0,0.9v8.7
		c0,0.5-0.1,1.1-0.2,1.4c-0.1,0.1-0.1,0.3-0.2,0.4c-0.1,0.2-0.2,0.2-0.4,0.5h4.6c-0.2-0.2-0.3-0.3-0.4-0.5c-0.1-0.1-0.2-0.3-0.2-0.4
		c-0.1-0.3-0.2-0.8-0.2-1.3V10L96.8,9.1z M110.8,18.9c-0.9,0.4-1.7,0.5-2.6,0.5c-1.5,0-2.8-0.5-3.8-1.6c-0.9-1-1.5-2.4-1.5-4
		c0-1.5,0.5-3,1.3-3.9c0.4-0.4,0.8-0.8,1.3-1.1c0.8-0.5,1.8-0.7,2.8-0.7c0.9,0,1.8,0.2,2.6,0.5c0.5,0.2,0.7,0.3,1.2,0.7V6.5
		c-0.4-0.1-0.5-0.2-0.9-0.2c-0.8-0.2-1.7-0.3-2.6-0.3c-1.6,0-2.9,0.3-4.2,0.8c-0.7,0.3-1.4,0.7-2,1.2c-1.8,1.4-2.8,3.5-2.8,6
		c0,2.3,0.9,4.4,2.7,5.7c1.4,1.1,3.3,1.7,5.5,1.7c1.4,0,2.7-0.2,4.1-0.7c0.1,0,0.1,0,0.2-0.1V18c-0.4,0.2-0.5,0.3-0.7,0.4
		C111.4,18.6,111.1,18.8,110.8,18.9 M128,9.1c0-0.6,0.1-1.1,0.2-1.5c0.1-0.2,0.1-0.4,0.2-0.5c0.2-0.2,0.3-0.4,0.6-0.6h-4.8
		c0.3,0.2,0.4,0.3,0.5,0.6c0.1,0.2,0.2,0.3,0.2,0.5c0.1,0.3,0.2,0.8,0.2,1.5v3.5h-6.6V9.9c0-0.8,0-1.3,0-1.7c0-0.2,0.1-0.4,0.1-0.6
		c0.1-0.3,0.4-0.8,0.6-1c0,0,0.1-0.1,0.2-0.2h-4.7c0.3,0.3,0.4,0.4,0.5,0.6c0.1,0.1,0.2,0.3,0.3,0.5c0.1,0.4,0.1,0.6,0.2,1.5l0,0.9
		v8c0,0.8,0,1.2-0.1,1.5c0,0.2-0.1,0.4-0.1,0.6c-0.1,0.3-0.3,0.6-0.6,0.8c0,0-0.1,0.1-0.2,0.1h4.6c-0.2-0.2-0.3-0.3-0.4-0.5
		c-0.1-0.1-0.2-0.3-0.2-0.5c-0.1-0.4-0.2-0.7-0.2-1.3c0-0.3,0-0.6,0-0.9v-3.5h6.6v3.6c0,0.8,0,1.1-0.1,1.5c0,0.2-0.1,0.4-0.2,0.6
		c-0.1,0.3-0.3,0.5-0.5,0.8c0,0-0.1,0.1-0.2,0.2h4.7c-0.2-0.2-0.3-0.3-0.4-0.5c-0.1-0.2-0.2-0.3-0.3-0.5c-0.1-0.3-0.2-0.6-0.2-1.3
		c0-0.4,0-0.7,0-0.8l0-8L128,9.1L128,9.1L128,9.1z M55.9,19c-0.6,0.1-1.4,0.2-2.3,0.2c-0.3,0-0.7,0-1.2,0h-2.2l8.9-12.8H47.6
		l-1.4,3.1c0.5-0.2,0.7-0.3,1.1-0.5c0.7-0.3,1.4-0.5,2.1-0.6c0.6-0.1,1.2-0.2,2.1-0.2c0.4,0,0.8,0,1.1,0h1.7L45.2,21h12.6l1.5-3.3
		c-0.5,0.3-0.7,0.4-1.1,0.6C57.5,18.6,56.7,18.8,55.9,19 M71.9,7c0.1,0.2,0.2,0.3,0.2,0.5c0.1,0.4,0.1,0.7,0.1,1.5v5.6
		c0,1.2,0,1.9-0.1,2.5c-0.1,0.4-0.2,0.8-0.4,1.1c-0.4,0.6-1,1-1.8,1.2c-0.3,0.1-0.7,0.1-1,0.1c-1.3,0-2.3-0.5-2.9-1.2
		c-0.4-0.6-0.5-1.2-0.5-2.7l0-1.2V10c0-0.9,0-1.3,0-1.7c0-0.3,0.1-0.5,0.1-0.7c0.1-0.3,0.3-0.8,0.6-1.1c0,0,0.1-0.1,0.1-0.1h-4.7
		C61.9,6.6,62,6.8,62.2,7c0.1,0.2,0.2,0.3,0.2,0.5c0.1,0.2,0.1,0.4,0.1,0.7c0,0.1,0,0.4,0,0.9l0,0.8v4.2c0,1.6,0,1.9,0.1,2.6
		c0.1,1.1,0.4,1.9,1,2.7c1.1,1.4,2.9,2.1,5.2,2.1c1.1,0,2.1-0.2,2.9-0.5c0.8-0.3,1.6-0.8,2.2-1.5c0.7-0.8,1.1-1.7,1.2-2.8
		c0.1-0.7,0.1-1.5,0.1-2.6V9.9l0-0.8V8.9c0-0.6,0-1,0.1-1.3c0.1-0.2,0.1-0.4,0.3-0.6c0.2-0.2,0.3-0.4,0.6-0.6h-4.7
		C71.7,6.6,71.8,6.7,71.9,7"/>
</g>
</svg>
